{
  "accessors": [
    {
      "bufferView": 2,
      "componentType": 5126,
      "count": 51354,
      "max": [
        2.7191379070281982,
        1.1805380582809448,
        2.3774340152740479
      ],
      "min": [
        -2.8258790969848633,
        -0.80295997858047485,
        -0.03394399955868721
      ],
      "type": "VEC3"
    },
    {
      "bufferView": 2,
      "byteOffset": 616248,
      "componentType": 5126,
      "count": 51354,
      "max": [
        0.99997162818908691,
        0.99998247623443604,
        0.99999302625656128
      ],
      "min": [
        -0.99958884716033936,
        -0.99998301267623901,
        -0.99999529123306274
      ],
      "type": "VEC3"
    },
    {
      "bufferView": 1,
      "componentType": 5126,
      "count": 51354,
      "max": [
        0.99190801382064819,
        0.99993902444839478
      ],
      "min": [
        0.00011899999663000926,
        5.0999999075429514e-05
      ],
      "type": "VEC2"
    },
    {
      "bufferView": 0,
      "componentType": 5125,
      "count": 300000,
      "max": [
        51353
      ],
      "min": [
        0
      ],
      "type": "SCALAR"
    }
  ],
  "asset": {
    "extras": {
      "author": "3DScanX (https://sketchfab.com/3dscanx)",
      "license": "CC-BY-4.0 (http://creativecommons.org/licenses/by/4.0/)",
      "source": "https://sketchfab.com/3d-models/nike-shoe-01-3593098780f14700ab85c4969205b0ed",
      "title": "Nike Shoe 01"
    },
    "generator": "Sketchfab-9.95.0",
    "version": "2.0"
  },
  "bufferViews": [
    {
      "buffer": 0,
      "byteLength": 1200000,
      "byteOffset": 0,
      "name": "floatBufferViews",
      "target": 34963
    },
    {
      "buffer": 0,
      "byteLength": 410832,
      "byteOffset": 1200000,
      "byteStride": 8,
      "name": "floatBufferViews",
      "target": 34962
    },
    {
      "buffer": 0,
      "byteLength": 1232496,
      "byteOffset": 1610832,
      "byteStride": 12,
      "name": "floatBufferViews",
      "target": 34962
    }
  ],
  "buffers": [
    {
      "byteLength": 2843328,
      "uri": "scene.bin"
    }
  ],
  "images": [
    {
      "uri": "textures/NikeShoe_01_MS_Cleaned_Positioned_Final_2_baseColor.jpeg"
    }
  ],
  "materials": [
    {
      "doubleSided": true,
      "emissiveFactor": [
        0,
        0,
        0
      ],
      "name": "NikeShoe_01_MS_Cleaned_Positioned_Final_2",
      "pbrMetallicRoughness": {
        "baseColorFactor": [
          1,
          1,
          1,
          1
        ],
        "baseColorTexture": {
          "index": 0,
          "texCoord": 0
        },
        "metallicFactor": 0,
        "roughnessFactor": 1
      }
    }
  ],
  "meshes": [
    {
      "primitives": [
        {
          "attributes": {
            "NORMAL": 1,
            "POSITION": 0,
            "TEXCOORD_0": 2
          },
          "indices": 3,
          "material": 0,
          "mode": 4
        }
      ]
    }
  ],
  "nodes": [
    {
      "children": [
        1
      ],
      "name": "RootNode (gltf orientation matrix)",
      "rotation": [
        -0.70710678118654746,
        -0,
        -0,
        0.70710678118654757
      ]
    },
    {
      "children": [
        2
      ],
      "matrix": [
        1,
        6.1232342629258393e-17,
        3.0487559034789461e-33,
        0,
        -6.1232342629258393e-17,
        1,
        1.6081226229577292e-16,
        0,
        6.7981556638739163e-33,
        -1.6081226229577292e-16,
        1,
        0,
        1.3877787807814457e-17,
        -9.8343820571899414,
        -11.100543975830078,
        1
      ],
      "name": "RootNode (model correction matrix)"
    },
    {
      "children": [
        3
      ],
      "name": "NikeShoe_01_MS_Cleaned_Positioned_Final_2.obj.cleaner.materialmerger.gles"
    },
    {
      "mesh": 0,
      "name": ""
    }
  ],
  "samplers": [
    {
      "magFilter": 9729,
      "minFilter": 9987,
      "wrapS": 10497,
      "wrapT": 10497
    }
  ],
  "scene": 0,
  "scenes": [
    {
      "name": "OSG_Scene",
      "nodes": [
        0
      ]
    }
  ],
  "textures": [
    {
      "sampler": 0,
      "source": 0
    }
  ]
}

