<svg xmlns="http://www.w3.org/2000/svg" viewBox="0 0 800 600" preserveAspectRatio="xMinYMax meet"><defs><style>.cls-1,.cls-3{fill:none;}.cls-2{fill:#fff;}.cls-3,.cls-4{stroke:#fff;stroke-miterlimit:10;stroke-width:20px;}.cls-3{stroke-linecap:round;}.cls-4,.cls-5{fill:rgba(0, 0, 0, 0.5);}</style></defs><g id="圖層_2" data-name="圖層 2"><g id="圖層_1-2" data-name="圖層 1"><rect class="cls-1" width="800" height="600"/><path class="cls-2" d="M657,301H757.47A10.54,10.54,0,0,1,768,311.53v71.94A10.54,10.54,0,0,1,757.47,394h-100"/><line class="cls-3" x1="657.04" y1="254" x2="749.98" y2="254"/><polygon class="cls-2" points="741.23 283.92 793.03 254 741.23 224.09 741.23 283.92"/><rect class="cls-4" x="15" y="254" width="651" height="188" rx="85.05"/><rect class="cls-5" x="70.15" y="502" width="539.98" height="98" rx="49"/><path class="cls-2" d="M255.48,526h6.36v19.8q0,3.54-.21,7.74t-.75,8.55a73.11,73.11,0,0,1-1.56,8.49,36,36,0,0,1-2.7,7.5,9.92,9.92,0,0,0-1.53-1.44q-1-.78-2-1.5a11.82,11.82,0,0,0-1.8-1.08,33.28,33.28,0,0,0,2.31-6.6,55.84,55.84,0,0,0,1.26-7.35q.39-3.75.51-7.44t.12-6.87Zm3.24,0h25.86v17.58H258.72v-6.36H277.8v-4.86H258.72Zm2.76,22.62h20.7v5.94H266.7v18.36h-5.22Zm8.4-5.34h6v35.82h-6Zm9.42,5.34H285v18a13,13,0,0,1-.3,3,3.12,3.12,0,0,1-1.44,1.95,5,5,0,0,1-2.43.93,28.27,28.27,0,0,1-3.09.15,13.73,13.73,0,0,0-.63-2.85,17.13,17.13,0,0,0-1.11-2.73q1,.06,1.68.06a5.93,5.93,0,0,0,1-.06.48.48,0,0,0,.6-.6Zm8.46-20h6.66v35h-6.66Zm11.7-4.68h6.9v46.74a12.28,12.28,0,0,1-.66,4.5,5,5,0,0,1-2.28,2.52,12.52,12.52,0,0,1-4.29,1.11,59.32,59.32,0,0,1-6,.27,28.59,28.59,0,0,0-.87-3.6,28,28,0,0,0-1.35-3.66l4.41.09,2.91,0a1.75,1.75,0,0,0,1-.3,1.38,1.38,0,0,0,.27-1Z"/><path class="cls-2" d="M312.84,548.81h54.78v7.26H312.84Zm6-22.56h37.74v7.08H318.84Zm17.88,14.22h7.5v30.12a10.75,10.75,0,0,1-.81,4.68,5.48,5.48,0,0,1-3,2.52,18.68,18.68,0,0,1-5.31,1.08q-3.15.24-7.29.18a12.41,12.41,0,0,0-.69-2.4q-.51-1.32-1.14-2.67t-1.23-2.37q2.1.12,4.23.18t3.72,0l2.25,0a2.74,2.74,0,0,0,1.38-.33,1.25,1.25,0,0,0,.36-1.05Zm17.76-14.22h1.92l1.62-.42,5.52,4.26a78.39,78.39,0,0,1-6.63,5.76q-3.69,2.88-7.68,5.43a81.64,81.64,0,0,1-7.89,4.47A14.86,14.86,0,0,0,340,544q-.84-1-1.74-1.92l-1.56-1.59a58.79,58.79,0,0,0,6.84-3.78,75.53,75.53,0,0,0,6.42-4.56,29.58,29.58,0,0,0,4.5-4.26Z"/><path class="cls-2" d="M374.88,525.11h7v54.06h-7Zm3.6,8.16h15.06V538H378.48Zm.66-8.16h19v21.3h-19v-5.16h12.24v-11H379.14ZM391,551.57h6.18v11.52a20.52,20.52,0,0,1-.36,3.48,24.49,24.49,0,0,1-1.23,4.35,18.6,18.6,0,0,1-2.43,4.44,16.22,16.22,0,0,1-3.9,3.75,19.74,19.74,0,0,0-2.16-2.19A23,23,0,0,0,384.6,575a12.08,12.08,0,0,0,3.93-3.78,14.25,14.25,0,0,0,1.92-4.44A17.16,17.16,0,0,0,391,563Zm-6.24,8.16h31v5.88h-31Zm.84-10.2h29.1v5.64h-29.1Zm36.78-24.42v5.1h-13.5v11.22h13.5v5.16H402V525.11Zm-19.68,26.16H409V578h-6.36Zm3.66-18h15.12V538H406.32Zm12.3-8.16h7.08v45.66a13.31,13.31,0,0,1-.57,4.35,4.53,4.53,0,0,1-2.25,2.49,10.36,10.36,0,0,1-4,1.14,51.59,51.59,0,0,1-5.88.18,18.54,18.54,0,0,0-.45-2.25q-.33-1.29-.75-2.61a10.55,10.55,0,0,0-1-2.22l4,.09,2.64,0a1.38,1.38,0,0,0,.93-.36,1.31,1.31,0,0,0,.27-.9Z"/></g></g></svg>