<svg xmlns="http://www.w3.org/2000/svg" viewBox="0 0 800 600" preserveAspectRatio="xMinYMax meet"><defs><style>.cls-1,.cls-4{fill:none;}.cls-2{fill:#fff;}.cls-3,.cls-5{fill:rgba(0, 0, 0, 0.5);}.cls-3,.cls-4{stroke:#fff;stroke-miterlimit:10;stroke-width:20px;}.cls-4{stroke-linecap:round;}</style></defs><g id="圖層_2" data-name="圖層 2"><g id="圖層_1-2" data-name="圖層 1"><rect class="cls-1" width="800" height="600"/><path class="cls-2" d="M195.86,253.31,491.08,170a10.25,10.25,0,0,1,12.65,7.07l12.63,44.76a10.26,10.26,0,0,1-7.08,12.65L440.1,254"/><rect class="cls-3" x="15" y="254" width="651" height="188" rx="85.05"/><path class="cls-4" d="M571.75,130.58C585.84,158.52,588.59,163.47,595,195"/><polygon class="cls-2" points="548.98 151.87 552.36 92.14 602.4 124.93 548.98 151.87"/><polygon class="cls-2" points="563.94 192.38 603.58 237.19 622.57 180.46 563.94 192.38"/><rect class="cls-5" x="70.03" y="502" width="539.98" height="98" rx="49"/><path class="cls-2" d="M333.18,562h7.32a27.19,27.19,0,0,1-1.95,6.42,13.74,13.74,0,0,1-3.9,5,22,22,0,0,1-7.11,3.6A67.45,67.45,0,0,1,316,579.41a11.38,11.38,0,0,0-.78-2,21.7,21.7,0,0,0-1.23-2.19,17.87,17.87,0,0,0-1.29-1.8,75.79,75.79,0,0,0,10-1.53,19.65,19.65,0,0,0,6-2.31,8.81,8.81,0,0,0,3.12-3.27A14.62,14.62,0,0,0,333.18,562Zm-19.56-33.84h52.92v5.4H313.62Zm1.26,31.74h43.5v5.64h-43.5ZM317.46,536h17.76v4.2H323.34v18.12h-5.88Zm3,12.6h15.3v3.78h-15.3Zm.18-6.06h15.3v3.72h-15.3Zm2.94-18.84,6.72-1.2a21,21,0,0,1,1.62,2.61,12.52,12.52,0,0,1,1.08,2.61L326,529a21,21,0,0,0-1-2.61A15.83,15.83,0,0,0,323.58,523.67Zm10,12.3h5.88v17.52a5.88,5.88,0,0,1-.45,2.61,3.28,3.28,0,0,1-1.59,1.41,9,9,0,0,1-2.85.57q-1.65.09-3.81.09a9.06,9.06,0,0,0-.66-2.1q-.48-1.08-.9-1.92,1.14.06,2.22.06h1.44a.64.64,0,0,0,.72-.72Zm22.68,23.94h7.14l-.24,2.64q-.48,4.32-1,7.17a24.71,24.71,0,0,1-1.17,4.53,7.48,7.48,0,0,1-1.56,2.58,6.67,6.67,0,0,1-2.34,1.47,9.61,9.61,0,0,1-2.88.51q-1.44.12-3.78.12t-5-.06a12.23,12.23,0,0,0-.6-3.15,11.65,11.65,0,0,0-1.38-3q2.34.24,4.56.27l3.18,0a9.15,9.15,0,0,0,1.44-.09,2.77,2.77,0,0,0,1-.39,7.61,7.61,0,0,0,1.44-3.48,61.6,61.6,0,0,0,1.14-8.34Zm-12-23.1h6.06v15.24h-6.06Zm5.16-14.28,7.26,1.2q-1.2,1.92-2.4,3.57l-2.1,2.91L346,529q.9-1.38,1.89-3.18A25.25,25.25,0,0,0,349.38,522.53Zm6.18,12.9h6.24v17.88a6.71,6.71,0,0,1-.51,3,3.64,3.64,0,0,1-2,1.59,11.87,11.87,0,0,1-3.33.57q-2,.09-4.59.09a11.2,11.2,0,0,0-.69-2.34q-.51-1.26-1-2.28,1.44.06,2.91.09a16.93,16.93,0,0,0,2,0,1.18,1.18,0,0,0,.75-.18.84.84,0,0,0,.21-.66Z"/></g></g></svg>