<svg xmlns="http://www.w3.org/2000/svg" viewBox="0 0 800 600" preserveAspectRatio="xMinYMax meet"><defs><style>.cls-1,.cls-3{fill:none;}.cls-2{fill:#fff;}.cls-3,.cls-4{stroke:#fff;stroke-miterlimit:10;stroke-width:20px;}.cls-3{stroke-linecap:round;}.cls-4,.cls-5{fill:rgba(0, 0, 0, 0.5);}</style></defs><g id="圖層_2" data-name="圖層 2"><g id="圖層_1-2" data-name="圖層 1"><rect class="cls-1" width="800" height="600"/><path class="cls-2" d="M195.86,253.31,491.08,170a10.25,10.25,0,0,1,12.65,7.07l12.63,44.76a10.26,10.26,0,0,1-7.08,12.65L440.1,254"/><path class="cls-3" d="M588.78,170.12a355.8,355.8,0,0,1,14,49.95"/><polygon class="cls-2" points="564.19 189.93 571.75 130.58 619.37 166.8 564.19 189.93"/><rect class="cls-4" x="15" y="254" width="651" height="188" rx="85.05"/><rect class="cls-5" x="70.11" y="502" width="539.98" height="98" rx="49"/><path class="cls-2" d="M264.32,522.41l5.64,2.46a63.61,63.61,0,0,1-4.47,7,64.9,64.9,0,0,1-5.49,6.6,48.62,48.62,0,0,1-5.88,5.31q-.18-.78-.66-2.19t-1.05-2.88a17.77,17.77,0,0,0-1-2.31,42.64,42.64,0,0,0,7.17-6.18A38.59,38.59,0,0,0,264.32,522.41ZM252.68,571q2.88-.42,6.72-1t8.13-1.32l8.61-1.44.42,5.64q-5.88,1.26-11.79,2.43t-10.65,2.19Zm.9-22.62h22.56v6.12H253.58Zm.48,9.48,4.68-1.2q.78,2.46,1.47,5.34a42.63,42.63,0,0,1,.93,5l-5,1.38a47.32,47.32,0,0,0-.75-5.07A52.54,52.54,0,0,0,254.06,557.81ZM257.24,538H274v6h-16.8Zm5,2.46h6.24v32l-6.24,1.14Zm.48-9.72,2.7-5.4q2.22,1,4.38,2.25t4.08,2.49a31.07,31.07,0,0,1,3.24,2.4l-2.94,5.94a30.23,30.23,0,0,0-3.18-2.58q-1.92-1.38-4.05-2.73A43,43,0,0,0,262.7,530.69Zm8.58,25.38,5.4,1.32q-.9,2.64-1.77,5.4t-1.59,4.68L269,566.21q.42-1.44.87-3.21t.84-3.6Q271.1,557.57,271.28,556.07Zm4.2-21.24H308.3v6.84H275.48Zm4.56-12h6.84v56.34H280Zm3.12,28.74h17v6.78h-17Zm0,17.46h17v6.84h-17Zm13.62-46.2h7v55.92h-7Z"/><path class="cls-2" d="M312.8,548.81h54.78v7.26H312.8Zm6-22.56h37.74v7.08H318.8Zm17.88,14.22h7.5v30.12a10.75,10.75,0,0,1-.81,4.68,5.48,5.48,0,0,1-3,2.52,18.68,18.68,0,0,1-5.31,1.08q-3.15.24-7.29.18a12.41,12.41,0,0,0-.69-2.4q-.51-1.32-1.14-2.67t-1.23-2.37q2.1.12,4.23.18t3.72,0l2.25,0a2.74,2.74,0,0,0,1.38-.33,1.25,1.25,0,0,0,.36-1.05Zm17.76-14.22h1.92l1.62-.42,5.52,4.26a78.39,78.39,0,0,1-6.63,5.76q-3.69,2.88-7.68,5.43a81.64,81.64,0,0,1-7.89,4.47A14.86,14.86,0,0,0,340,544q-.84-1-1.74-1.92l-1.56-1.59a58.79,58.79,0,0,0,6.84-3.78,75.53,75.53,0,0,0,6.42-4.56,29.58,29.58,0,0,0,4.5-4.26Z"/><path class="cls-2" d="M374.84,525.11h7v54.06h-7Zm3.6,8.16H393.5V538H378.44Zm.66-8.16h19v21.3h-19v-5.16h12.24v-11H379.1Zm11.82,26.46h6.18v11.52a20.52,20.52,0,0,1-.36,3.48,24.49,24.49,0,0,1-1.23,4.35,18.6,18.6,0,0,1-2.43,4.44,16.22,16.22,0,0,1-3.9,3.75,19.74,19.74,0,0,0-2.16-2.19,23,23,0,0,0-2.46-1.95,12.08,12.08,0,0,0,3.93-3.78,14.25,14.25,0,0,0,1.92-4.44,17.16,17.16,0,0,0,.51-3.72Zm-6.24,8.16h31v5.88h-31Zm.84-10.2h29.1v5.64h-29.1Zm36.78-24.42v5.1H408.8v11.22h13.5v5.16H402V525.11Zm-19.68,26.16H409V578h-6.36Zm3.66-18H421.4V538H406.28Zm12.3-8.16h7.08v45.66a13.31,13.31,0,0,1-.57,4.35,4.53,4.53,0,0,1-2.25,2.49,10.36,10.36,0,0,1-4,1.14,51.59,51.59,0,0,1-5.88.18,18.54,18.54,0,0,0-.45-2.25q-.33-1.29-.75-2.61a10.55,10.55,0,0,0-1-2.22l4,.09,2.64,0a1.38,1.38,0,0,0,.93-.36,1.31,1.31,0,0,0,.27-.9Z"/></g></g></svg>