<svg xmlns="http://www.w3.org/2000/svg" viewBox="0 0 800 600" preserveAspectRatio="xMinYMax meet"><defs><style>.cls-1,.cls-3{fill:none;}.cls-2{fill:#fff;}.cls-3,.cls-4{stroke:#fff;stroke-miterlimit:10;stroke-width:20px;}.cls-3{stroke-linecap:round;}.cls-4,.cls-5{fill:rgba(0, 0, 0, 0.5);}</style></defs><g id="圖層_2" data-name="圖層 2"><g id="圖層_1-2" data-name="圖層 1"><rect class="cls-1" width="800" height="600"/><path class="cls-2" d="M195.86,253.31,491.08,170a10.25,10.25,0,0,1,12.65,7.07l12.63,44.76a10.26,10.26,0,0,1-7.08,12.65L440.1,254"/><path class="cls-3" d="M578.75,140.58a356.72,356.72,0,0,1,19.93,47.89"/><polygon class="cls-2" points="567.11 188.15 609.79 230.07 624.76 172.15 567.11 188.15"/><rect class="cls-4" x="15" y="254" width="651" height="188" rx="85.05"/><rect class="cls-5" x="70.07" y="502" width="539.98" height="98" rx="49"/><path class="cls-2" d="M264.28,522.41l5.64,2.46a63.61,63.61,0,0,1-4.47,7,64.9,64.9,0,0,1-5.49,6.6,48.62,48.62,0,0,1-5.88,5.31q-.18-.78-.66-2.19t-1-2.88a17.77,17.77,0,0,0-1.05-2.31,42.64,42.64,0,0,0,7.17-6.18A38.59,38.59,0,0,0,264.28,522.41ZM252.64,571q2.88-.42,6.72-1t8.13-1.32l8.61-1.44.42,5.64q-5.88,1.26-11.79,2.43t-10.65,2.19Zm.9-22.62H276.1v6.12H253.54Zm.48,9.48,4.68-1.2q.78,2.46,1.47,5.34a42.63,42.63,0,0,1,.93,5l-5,1.38a47.32,47.32,0,0,0-.75-5.07A52.54,52.54,0,0,0,254,557.81ZM257.2,538H274v6H257.2Zm5,2.46h6.24v32l-6.24,1.14Zm.48-9.72,2.7-5.4q2.22,1,4.38,2.25t4.08,2.49a31.07,31.07,0,0,1,3.24,2.4l-2.94,5.94a30.23,30.23,0,0,0-3.18-2.58q-1.92-1.38-4.05-2.73A43,43,0,0,0,262.66,530.69Zm8.58,25.38,5.4,1.32q-.9,2.64-1.77,5.4t-1.59,4.68L269,566.21q.42-1.44.87-3.21t.84-3.6Q271.06,557.57,271.24,556.07Zm4.2-21.24h32.82v6.84H275.44Zm4.56-12h6.84v56.34H280Zm3.12,28.74h17v6.78h-17Zm0,17.46h17v6.84h-17Zm13.62-46.2h7v55.92h-7Z"/><path class="cls-2" d="M312.76,548.81h54.78v7.26H312.76Zm6-22.56H356.5v7.08H318.76Zm17.88,14.22h7.5v30.12a10.75,10.75,0,0,1-.81,4.68,5.48,5.48,0,0,1-3,2.52,18.68,18.68,0,0,1-5.31,1.08q-3.15.24-7.29.18a12.41,12.41,0,0,0-.69-2.4q-.51-1.32-1.14-2.67t-1.23-2.37q2.1.12,4.23.18t3.72,0l2.25,0a2.74,2.74,0,0,0,1.38-.33,1.25,1.25,0,0,0,.36-1.05Zm17.76-14.22h1.92l1.62-.42,5.52,4.26a78.39,78.39,0,0,1-6.63,5.76q-3.69,2.88-7.68,5.43a81.64,81.64,0,0,1-7.89,4.47,14.86,14.86,0,0,0-1.32-1.77q-.84-1-1.74-1.92l-1.56-1.59a58.79,58.79,0,0,0,6.84-3.78,75.53,75.53,0,0,0,6.42-4.56,29.58,29.58,0,0,0,4.5-4.26Z"/><path class="cls-2" d="M374.74,525.11h6.84v54.06h-6.84Zm3.6,7.62h15.12v4.38H378.34Zm.66-7.62h19v19.56H379v-4.8h12.3v-10H379Zm6.3,36.3q-.18-.66-.57-1.92a21.83,21.83,0,0,0-.75-2.1,4.87,4.87,0,0,0,1.5-.54,14.53,14.53,0,0,0,1.68-1.08q.66-.48,2.07-1.74t3.12-3a34.29,34.29,0,0,0,3.09-3.6l3.48,2.46a73,73,0,0,1-5.4,5.1,43.71,43.71,0,0,1-5.76,4.2v.18a10,10,0,0,0-1.86,1.08A1.3,1.3,0,0,0,385.3,561.41Zm.24-7.2-.66-2a15.77,15.77,0,0,0-.84-2.13,5,5,0,0,0,1-.39,3.67,3.67,0,0,0,1-.69l1.05-1.08q.75-.78,1.62-1.89a11.18,11.18,0,0,0,1.41-2.31l4.08,2.16a30.47,30.47,0,0,1-2.94,3.33,27.21,27.21,0,0,1-3.12,2.67V552a13.66,13.66,0,0,0-1.95,1.23A1.37,1.37,0,0,0,385.54,554.21Zm-.24,7.2-.12-2.88,1.86-1.2,10.08-1q.06.72.21,1.62t.21,1.5q-3.66.42-5.91.72t-3.54.51a16.41,16.41,0,0,0-1.89.39Q385.6,561.29,385.3,561.41Zm.24-7.14-.06-2.76,1.86-1.08,7.74-.3q-.24.72-.48,1.62a9.84,9.84,0,0,0-.3,1.5q-3.3.18-5.07.33a20.34,20.34,0,0,0-2.55.33A5.51,5.51,0,0,0,385.54,554.27Zm.06,7.92H390v5.16h6.48v4H385.6Zm8-1h4.86V567a16.84,16.84,0,0,1-.63,4.62,9.38,9.38,0,0,1-2.49,4.08,14.83,14.83,0,0,1-5.7,3.18,10.26,10.26,0,0,0-1.38-2.07,19,19,0,0,0-1.74-1.89,12.43,12.43,0,0,0,4.62-2.19,6.24,6.24,0,0,0,2-2.79,10,10,0,0,0,.48-3.06Zm.42-6.54,3.48-1q.72,1.62,1.44,3.51a26.38,26.38,0,0,1,1,3.15l-3.6,1.26q-.36-1.38-1-3.36T394.06,554.63Zm7.5-.3q-.18-.72-.6-2a15.77,15.77,0,0,0-.84-2.13,5,5,0,0,0,1-.39,3.67,3.67,0,0,0,1-.69q.3-.3,1-1.11t1.59-1.89a13.65,13.65,0,0,0,1.44-2.28l4,2.16a30.9,30.9,0,0,1-2.88,3.3,25.78,25.78,0,0,1-3.12,2.7v.06a20.39,20.39,0,0,0-2,1.29A1.36,1.36,0,0,0,401.56,554.33Zm-.12,7.14q-.18-.66-.57-1.89t-.75-2.07a4.87,4.87,0,0,0,1.5-.54,9.52,9.52,0,0,0,1.68-1.2q.66-.48,2.07-1.74t3.12-3a36.73,36.73,0,0,0,3.09-3.63l3.48,2.46a70,70,0,0,1-5.4,5.19,46.64,46.64,0,0,1-5.76,4.29v.12a12.17,12.17,0,0,0-1.86,1.14A1.28,1.28,0,0,0,401.44,561.47Zm-.18-.3h5v17.22h-5Zm.18.3-.12-2.88,1.86-1.2,10.08-1q.06.72.21,1.62t.27,1.5q-3.72.42-6,.72t-3.51.51q-1.26.21-1.86.36A4.8,4.8,0,0,0,401.44,561.47Zm.12-7.14-.06-2.76,1.92-1.08,7.68-.3q-.24.72-.45,1.62a13,13,0,0,0-.27,1.44q-3.3.18-5.1.36a21.69,21.69,0,0,0-2.55.36A7.6,7.6,0,0,0,401.56,554.33Zm20.76-29.22v4.8h-13.5v10h13.5v4.8H402V525.11ZM405.1,567.35h7.26v4H405.1Zm.84-34.62h15.24v4.38H405.94Zm4,29.46h4.62V573H409.9Zm.24-7.5,3.36-1q.84,1.56,1.65,3.48a32.45,32.45,0,0,1,1.17,3.12l-3.54,1.38a28.88,28.88,0,0,0-1.14-3.33Q410.86,556.37,410.14,554.69Zm8.64-29.58h6.9v45.78a14.82,14.82,0,0,1-.48,4.17,4.23,4.23,0,0,1-2,2.49,8.67,8.67,0,0,1-3.66,1.11q-2.16.21-5.16.21a20.07,20.07,0,0,0-.42-2.28q-.3-1.26-.69-2.55a12.17,12.17,0,0,0-.87-2.19l3.21.09q1.59,0,2.19,0a1.06,1.06,0,0,0,.81-.24,1.29,1.29,0,0,0,.21-.84Z"/></g></g></svg>